# xmcd CD database file
#
# Track frame offsets:
#	150
#	26039
#	53009
#	79400
#	104028
#	127959
#	159948
#	189072
#	217943
#	249796
#
# Disc length: 3694 seconds
#
# Revision: 0
# Processed by: cddbd v1.5.2PL0 Copyright (c) Steve Scherf et al.
# Submitted via: CDex 1.70beta2
#
DISCID=760e6c0a
DTITLE=The Timeless Symphonic Orchestra - A New Age Christmas
DYEAR=2005
DGENRE=New Age
TTITLE0=We Three Kings
TTITLE1=Ave Maria
TTITLE2=Deck The Halls
TTITLE3=Away In A Manger
TTITLE4=Oh Christmas Tree
TTITLE5=Good King Wenceslas
TTITLE6=It Cam Upon A Midnight Clear
TTITLE7=God Rest Ye Merry, Gentlemen
TTITLE8=The Nutcracker Overture
TTITLE9=What Child Is This?
EXTD=YEAR: 2005
EXTT0=
EXTT1=
EXTT2=
EXTT3=
EXTT4=
EXTT5=
EXTT6=
EXTT7=
EXTT8=
EXTT9=
PLAYORDER=
